<svg height="1454" width="720" xmlns="http://www.w3.org/2000/svg">
<rect height="1454" fill="#555" width="720"></rect>
<text fill="#7f7" font-family="Courier New" font-size="12" xml:space="preserve">
<tspan x="10" y="26">24 megabytes installed</tspan>
<tspan x="10" y="42"></tspan>
<tspan x="10" y="58">node_modules</tspan>
<tspan x="10" y="74">└─┬ gulp-convert@0.2.0 </tspan>
<tspan x="10" y="90">  ├─┬ converter@0.0.5 </tspan>
<tspan x="10" y="106">  │ ├── csv@0.3.7 </tspan>
<tspan x="10" y="122">  │ ├── lodash@2.4.2 </tspan>
<tspan x="10" y="138">  │ ├─┬ plist@0.4.3 </tspan>
<tspan x="10" y="154">  │ │ ├── xmlbuilder@0.4.3 </tspan>
<tspan x="10" y="170">  │ │ └── xmldom@0.1.27 </tspan>
<tspan x="10" y="186">  │ ├── pretty-data@0.40.0 </tspan>
<tspan x="10" y="202">  │ ├─┬ xml2js@0.4.17 </tspan>
<tspan x="10" y="218">  │ │ ├── sax@1.2.2 </tspan>
<tspan x="10" y="234">  │ │ └─┬ xmlbuilder@4.2.1 </tspan>
<tspan x="10" y="250">  │ │   └── lodash@4.17.4 </tspan>
<tspan x="10" y="266">  │ └─┬ yamljs@0.1.6 </tspan>
<tspan x="10" y="282">  │   ├─┬ argparse@0.1.16 </tspan>
<tspan x="10" y="298">  │   │ ├── underscore@1.7.0 </tspan>
<tspan x="10" y="314">  │   │ └── underscore.string@2.4.0 </tspan>
<tspan x="10" y="330">  │   └─┬ glob@3.1.21 </tspan>
<tspan x="10" y="346">  │     ├── graceful-fs@1.2.3 </tspan>
<tspan x="10" y="362">  │     ├── inherits@1.0.2 </tspan>
<tspan x="10" y="378">  │     └─┬ minimatch@0.2.14 </tspan>
<tspan x="10" y="394">  │       ├── lru-cache@2.7.3 </tspan>
<tspan x="10" y="410">  │       └── sigmund@1.0.1 </tspan>
<tspan x="10" y="426">  ├─┬ event-stream@3.2.2 </tspan>
<tspan x="10" y="442">  │ ├── duplexer@0.1.1 </tspan>
<tspan x="10" y="458">  │ ├── from@0.1.7 </tspan>
<tspan x="10" y="474">  │ ├── map-stream@0.1.0 </tspan>
<tspan x="10" y="490">  │ ├── pause-stream@0.0.11 </tspan>
<tspan x="10" y="506">  │ ├── split@0.3.3 </tspan>
<tspan x="10" y="522">  │ ├── stream-combiner@0.0.4 </tspan>
<tspan x="10" y="538">  │ └── through@2.3.8 </tspan>
<tspan x="10" y="554">  └─┬ gulp-util@3.0.8 </tspan>
<tspan x="10" y="570">    ├── array-differ@1.0.0 </tspan>
<tspan x="10" y="586">    ├── array-uniq@1.0.3 </tspan>
<tspan x="10" y="602">    ├── beeper@1.1.1 </tspan>
<tspan x="10" y="618">    ├─┬ chalk@1.1.3 </tspan>
<tspan x="10" y="634">    │ ├── ansi-styles@2.2.1 </tspan>
<tspan x="10" y="650">    │ ├── escape-string-regexp@1.0.5 </tspan>
<tspan x="10" y="666">    │ ├─┬ has-ansi@2.0.0 </tspan>
<tspan x="10" y="682">    │ │ └── ansi-regex@2.1.1 </tspan>
<tspan x="10" y="698">    │ ├── strip-ansi@3.0.1 </tspan>
<tspan x="10" y="714">    │ └── supports-color@2.0.0 </tspan>
<tspan x="10" y="730">    ├── dateformat@2.0.0 </tspan>
<tspan x="10" y="746">    ├─┬ fancy-log@1.3.0 </tspan>
<tspan x="10" y="762">    │ └── time-stamp@1.0.1 </tspan>
<tspan x="10" y="778">    ├─┬ gulplog@1.0.0 </tspan>
<tspan x="10" y="794">    │ └── glogg@1.0.0 </tspan>
<tspan x="10" y="810">    ├─┬ has-gulplog@0.1.0 </tspan>
<tspan x="10" y="826">    │ └── sparkles@1.0.0 </tspan>
<tspan x="10" y="842">    ├── lodash._reescape@3.0.0 </tspan>
<tspan x="10" y="858">    ├── lodash._reevaluate@3.0.0 </tspan>
<tspan x="10" y="874">    ├── lodash._reinterpolate@3.0.0 </tspan>
<tspan x="10" y="890">    ├─┬ lodash.template@3.6.2 </tspan>
<tspan x="10" y="906">    │ ├── lodash._basecopy@3.0.1 </tspan>
<tspan x="10" y="922">    │ ├── lodash._basetostring@3.0.1 </tspan>
<tspan x="10" y="938">    │ ├── lodash._basevalues@3.0.0 </tspan>
<tspan x="10" y="954">    │ ├── lodash._isiterateecall@3.0.9 </tspan>
<tspan x="10" y="970">    │ ├─┬ lodash.escape@3.2.0 </tspan>
<tspan x="10" y="986">    │ │ └── lodash._root@3.0.1 </tspan>
<tspan x="10" y="1002">    │ ├─┬ lodash.keys@3.1.2 </tspan>
<tspan x="10" y="1018">    │ │ ├── lodash._getnative@3.9.1 </tspan>
<tspan x="10" y="1034">    │ │ ├── lodash.isarguments@3.1.0 </tspan>
<tspan x="10" y="1050">    │ │ └── lodash.isarray@3.0.4 </tspan>
<tspan x="10" y="1066">    │ ├── lodash.restparam@3.6.1 </tspan>
<tspan x="10" y="1082">    │ └── lodash.templatesettings@3.1.1 </tspan>
<tspan x="10" y="1098">    ├── minimist@1.2.0 </tspan>
<tspan x="10" y="1114">    ├─┬ multipipe@0.1.2 </tspan>
<tspan x="10" y="1130">    │ └─┬ duplexer2@0.0.2 </tspan>
<tspan x="10" y="1146">    │   └─┬ readable-stream@1.1.14 </tspan>
<tspan x="10" y="1162">    │     ├── inherits@2.0.3 </tspan>
<tspan x="10" y="1178">    │     ├── isarray@0.0.1 </tspan>
<tspan x="10" y="1194">    │     └── string_decoder@0.10.31 </tspan>
<tspan x="10" y="1210">    ├── object-assign@3.0.0 </tspan>
<tspan x="10" y="1226">    ├── replace-ext@0.0.1 </tspan>
<tspan x="10" y="1242">    ├─┬ through2@2.0.3 </tspan>
<tspan x="10" y="1258">    │ ├─┬ readable-stream@2.2.9 </tspan>
<tspan x="10" y="1274">    │ │ ├── buffer-shims@1.0.0 </tspan>
<tspan x="10" y="1290">    │ │ ├── core-util-is@1.0.2 </tspan>
<tspan x="10" y="1306">    │ │ ├── inherits@2.0.3 </tspan>
<tspan x="10" y="1322">    │ │ ├── isarray@1.0.0 </tspan>
<tspan x="10" y="1338">    │ │ ├── process-nextick-args@1.0.7 </tspan>
<tspan x="10" y="1354">    │ │ ├── string_decoder@1.0.0 </tspan>
<tspan x="10" y="1370">    │ │ └── util-deprecate@1.0.2 </tspan>
<tspan x="10" y="1386">    │ └── xtend@4.0.1 </tspan>
<tspan x="10" y="1402">    └─┬ vinyl@0.5.3 </tspan>
<tspan x="10" y="1418">      ├── clone@1.0.2 </tspan>
<tspan x="10" y="1434">      └── clone-stats@0.0.1</tspan>
</text>
</svg>
